<svg width="363" height="149" viewBox="0 0 363 149" fill="none" xmlns="http://www.w3.org/2000/svg" id="reboot-world"><path d="M65.756 36.798a30.328 30.328 0 004.231-16.094c0-6.222-2.107-11.019-6.321-14.39-.4-.316-.819-.623-1.257-.906-4.122-2.767-9.76-4.149-16.915-4.145H13.612L0 69.403h20.216l3.7-18.27h10.693l5.445 18.27h22.84L53.9 48.028l-.252-.59c.13-.066.272-.132.4-.2a27.275 27.275 0 0011.708-10.44zM47.19 32.367a11.592 11.592 0 01-8.506 3.115H27.018l3.7-18.663h11.667a8.616 8.616 0 015.937 1.836 6.878 6.878 0 012.032 5.358 11.175 11.175 0 01-3.164 8.354z" fill="#fff"/><g style="mix-blend-mode:multiply"><path d="M63.666 6.314c-.4-.316-.819-.623-1.257-.906l-8.353 41.83a27.277 27.277 0 0011.7-10.44 30.329 30.329 0 004.231-16.094c0-6.222-2.107-11.019-6.321-14.39zM49.634 69.402h13.262l-8.992-21.38-4.27 21.38z" fill="#1D1D1B" opacity=".35"/></g><path d="M122.119 16.824l3.115-15.56H69.441L55.827 69.403h56.67l3.115-15.547H79.061l2.232-10.792h32.275l3.117-15.547H84.409l2.131-10.693h35.579z" fill="#fff"/><g style="mix-blend-mode:multiply"><path d="M114.989 1.267l-3.1 15.56h10.235l3.115-15.56h-10.25zm-8.353 41.8h6.93l3.117-15.547h-6.942l-3.105 15.547zm-5.259 26.339h11.12l3.115-15.547h-11.13l-3.105 15.547z" fill="#1D1D1B" opacity=".35"/></g><path d="M173.627 26.642a15.808 15.808 0 004.132-10.6 11.963 11.963 0 00-1.968-6.8 14.447 14.447 0 00-4.2-3.992c-4.122-2.656-9.745-3.986-16.87-3.99h-33.528l-13.612 68.139h34.9a44.1 44.1 0 0016.137-2.766 25.77 25.77 0 0010.616-7.26c.142-.175.285-.34.417-.514a18.27 18.27 0 003.936-11.623 14.86 14.86 0 00-2.822-9.13 13.116 13.116 0 00-7.871-4.963 20.943 20.943 0 0010.733-6.501zm-23.573 25.607a11.691 11.691 0 01-7.1 1.989H130.81l2.428-12.343h12.147a9.357 9.357 0 015.444 1.366 4.278 4.278 0 011.946 3.7 6.244 6.244 0 01-2.721 5.288zm3.738-26.2a8.052 8.052 0 01-5.587 1.947h-12.146l2.23-11.568h12.257a6.189 6.189 0 014.035 1.17 4.176 4.176 0 011.4 3.4 6.396 6.396 0 01-2.188 5.052l-.001-.001z" fill="#fff"/><g style="mix-blend-mode:multiply"><path d="M173.629 26.64a15.808 15.808 0 004.132-10.6 11.963 11.963 0 00-1.968-6.8 37.755 37.755 0 00-8.418 9.568 36.467 36.467 0 00-5.446 19.583 32.493 32.493 0 004.275 16.674 32.087 32.087 0 003.029 4.308c.142-.175.285-.338.417-.514a18.27 18.27 0 003.936-11.623 14.86 14.86 0 00-2.822-9.13 13.116 13.116 0 00-7.871-4.963 20.944 20.944 0 0010.736-6.502z" fill="#1D1D1B" opacity=".35"/></g><path d="M240.049 18.583a27.09 27.09 0 00-1.553-3.03c-.349-.6-.72-1.191-1.1-1.76a30.369 30.369 0 00-10.846-9.665A36.448 36.448 0 00209.055.006a43.2 43.2 0 00-20.664 5 38.216 38.216 0 00-14.817 13.808 35.835 35.835 0 00-4.69 11.832 36.209 36.209 0 00-.656 4.919c-.066.93-.1 1.88-.1 2.832a32.541 32.541 0 004.023 16.226c.078.153.165.295.252.448a30.859 30.859 0 004.013 5.413h16.729l-1.958 8.877a38.902 38.902 0 0010.672 1.41 42.547 42.547 0 0020.653-5.105 39.382 39.382 0 0011.109-8.857 40.146 40.146 0 003.542-4.821c.064-.088.123-.18.175-.274a36.703 36.703 0 005.445-19.626 32.708 32.708 0 00-2.734-13.505zm-20.544 25.213a19.649 19.649 0 01-6.67 7.435 16.206 16.206 0 01-9.032 2.723 13.325 13.325 0 01-7.489-2.242 15.784 15.784 0 01-5.391-6.068 18.356 18.356 0 01-1.989-8.6 20.614 20.614 0 012.612-10.212 19.958 19.958 0 016.954-7.336 17.024 17.024 0 019.086-2.667 13.028 13.028 0 017.392 2.187 14.565 14.565 0 015.15 5.98 18.952 18.952 0 011.847 8.452c.038 3.6-.81 7.153-2.47 10.348z" fill="#fff"/><g style="mix-blend-mode:multiply"><path d="M238.496 15.555c-.349-.6-.72-1.192-1.1-1.76a37.557 37.557 0 00-3.7 5.018 36.467 36.467 0 00-5.446 19.583 32.482 32.482 0 004.276 16.674c.349.6.71 1.18 1.093 1.739a40.513 40.513 0 003.718-5.1 36.703 36.703 0 005.445-19.626 32.02 32.02 0 00-4.286-16.528z" fill="#1D1D1B" opacity=".35"/></g><path d="M305.827 17.4a40.383 40.383 0 00-1-1.846 29.783 29.783 0 00-9.075-9.678 32.498 32.498 0 00-2.876-1.748A36.438 36.438 0 00275.381.006a43.222 43.222 0 00-20.664 5 38.274 38.274 0 00-14.815 13.81 36.466 36.466 0 00-5.446 19.583 32.482 32.482 0 004.276 16.674 30.165 30.165 0 0011.962 11.514 35.964 35.964 0 0017.493 4.186 42.53 42.53 0 0020.653-5.106 38.7 38.7 0 0014.815-13.951 36.614 36.614 0 005.457-19.626 32.513 32.513 0 00-3.285-14.69zm-20.008 26.396a19.528 19.528 0 01-6.659 7.435 16.23 16.23 0 01-9.032 2.72c-2.664.02-5.273-.76-7.489-2.24a15.911 15.911 0 01-5.4-6.068 18.485 18.485 0 01-1.989-8.6 20.507 20.507 0 012.622-10.212 19.958 19.958 0 016.954-7.336 17.026 17.026 0 019.086-2.667c2.628-.032 5.204.73 7.392 2.185a14.744 14.744 0 015.15 5.98 18.957 18.957 0 011.848 8.453 21.828 21.828 0 01-2.483 10.35z" fill="#fff"/><g style="mix-blend-mode:multiply"><path d="M304.822 15.555a29.783 29.783 0 00-9.075-9.678l-2.3 11.524h12.376a32.817 32.817 0 00-1.001-1.846z" fill="#1D1D1B" opacity=".35"/></g><path d="M362.737 1.267l-3.207 16.137h-19.931l-10.4 52h-20.22l10.4-52H299.65l3.209-16.137h59.878zM84.807 81.118L66.274 126.61l-3.641-45.495-19.013.1-18.533 45.4-3.644-45.498H.574l10.474 65.612h20.129l17.592-42.029 3.466 42.029h20.129l9.534-19.308 22.011-44.61.842-1.694H84.807z" fill="#fff"/><g style="mix-blend-mode:multiply"><path d="M99.788 84.729a36.892 36.892 0 00-14.28 13.284 35.11 35.11 0 00-5.236 18.861 32.975 32.975 0 001.628 10.551l22.011-44.61a39.688 39.688 0 00-4.123 1.914z" fill="#1D1D1B" opacity=".35"/></g><path d="M154.23 94.879a28.028 28.028 0 00-2.525-3.653 29.921 29.921 0 00-1.663-1.87h-25.048l2.044-9.248.043-.2c-.394-.01-.8-.01-1.2-.01-.5 0-.994.01-1.487.033a40.997 40.997 0 00-18.4 4.788 36.917 36.917 0 00-14.28 13.284 35.113 35.113 0 00-5.236 18.861 31.225 31.225 0 004.122 16.063 29.168 29.168 0 0011.5 11.087 34.746 34.746 0 0016.849 4.023 41.007 41.007 0 0019.888-4.91c.984-.534 1.935-1.1 2.843-1.694a37.122 37.122 0 0011.436-11.739 35.315 35.315 0 005.236-18.9 30.748 30.748 0 00-4.122-15.915zm-18.291 27.181a18.734 18.734 0 01-6.418 7.161 15.604 15.604 0 01-8.694 2.624 12.905 12.905 0 01-7.214-2.151 15.254 15.254 0 01-5.195-5.849 17.711 17.711 0 01-1.913-8.289 19.698 19.698 0 012.525-9.818l6.691-7.074a16.373 16.373 0 018.759-2.57c2.525-.025 5 .707 7.105 2.1a14.252 14.252 0 014.964 5.763 18.408 18.408 0 011.772 8.147 20.983 20.983 0 01-2.382 9.956z" fill="#fff"/><g style="mix-blend-mode:multiply"><path d="M154.226 94.883a27.776 27.776 0 00-2.525-3.652l-10.026 50.207a37.097 37.097 0 0011.436-11.741 35.324 35.324 0 005.236-18.9 30.743 30.743 0 00-4.121-15.914z" fill="#1D1D1B" opacity=".35"/></g><path d="M210.13 115.33a29.145 29.145 0 004.077-15.494c0-5.216-1.541-9.4-4.624-12.531-.46-.472-.949-.914-1.465-1.323-4.058-3.248-9.893-4.87-17.505-4.865h-30.7l-13.109 65.612h19.471l3.565-17.592h10.289l5.248 17.592h22l-6.548-15.558-2.352-5.587a30.5 30.5 0 003.9-2.2 25.504 25.504 0 007.753-8.054zm-17.876-4.254a11.199 11.199 0 01-8.19 3h-11.24l3.565-17.975h11.229a8.275 8.275 0 015.719 1.772 6.591 6.591 0 011.968 5.15 10.83 10.83 0 01-3.052 8.053h.001z" fill="#fff"/><g style="mix-blend-mode:multiply"><path d="M209.583 87.305l-7.206 36.083a25.506 25.506 0 007.753-8.058 29.144 29.144 0 004.077-15.497c0-5.213-1.541-9.4-4.624-12.528zm-11.864 59.428h9.655l-6.548-15.558-3.107 15.558z" fill="#1D1D1B" opacity=".35"/></g><path d="M226.662 130.45l9.829-49.332h-19.474l-13.1 65.612h47.081l3.27-16.28h-27.606z" fill="#fff"/><g style="mix-blend-mode:multiply"><path d="M243.696 130.45l-3.226 16.28H251l3.27-16.28h-10.574z" fill="#1D1D1B" opacity=".35"/></g><path d="M303.859 84.817a24.804 24.804 0 0110.717 10.389 28.858 28.858 0 013.14 15.49 36.335 36.335 0 01-20.735 31.5 46.077 46.077 0 01-20.643 4.54h-29.67l13.01-65.615h27.332a36.073 36.073 0 0116.849 3.696zm-9.5 15.959c-2.467-2.867-5.851-4.3-10.153-4.3h-8.051l-6.925 35h10.665a16.211 16.211 0 008.706-2.433 18.21 18.21 0 006.368-6.832 22.88 22.88 0 002.713-10.108c.251-4.682-.856-8.458-3.322-11.328l-.001.001zM150.043 89.357h-25.048l2.088-9.447a34.63 34.63 0 0115.646 3.969 29.65 29.65 0 017.314 5.478z" fill="#fff"/><g style="mix-blend-mode:multiply"><path d="M188.092 69.359l-4.417 20h-33.632a29.646 29.646 0 00-7.314-5.477 34.63 34.63 0 00-15.646-3.97l-.043.2a33.476 33.476 0 00-2.647-.174 4.508 4.508 0 00-.4-.022l2.319-10.507 1.968-8.921h45.047a30.713 30.713 0 007.947 6.1 32.823 32.823 0 006.818 2.77z" fill="#1D1D1B" opacity=".35"/></g><path d="M191.187 69.359l-4.417 20h-36.727a29.646 29.646 0 00-7.314-5.477 34.63 34.63 0 00-15.646-3.97l2.317-10.506 1.968-8.921h45.047a30.718 30.718 0 007.949 6.1 32.775 32.775 0 006.823 2.774z" fill="#E10098"/><path d="M144.625 77.925c-.023.14-.039.282-.047.424a.56.56 0 00.034.256.56.56 0 00.143.216.8.8 0 00.507.14c.236-.002.47-.042.694-.117.243-.078.553-.188.93-.33l.472 3.416a6.384 6.384 0 01-1.7.566c-.629.123-1.268.186-1.909.188a4.318 4.318 0 01-2.933-.93 3.146 3.146 0 01-1.071-2.508 4.687 4.687 0 01.094-.967l.967-4.922h-1.767l.613-3.04h1.767l.706-3.555h4.735l-.706 3.556h3.155l-.613 3.039h-3.155l-.916 4.568zM163.186 70.667a4.123 4.123 0 011.177 3.039c-.004.395-.044.79-.118 1.178l-1.531 7.584h-4.757l1.366-6.878c.043-.186.066-.376.069-.566a1.586 1.586 0 00-.411-1.154 1.5 1.5 0 00-1.118-.424 2.247 2.247 0 00-1.649.743 3.533 3.533 0 00-.942 1.9l-1.274 6.383h-4.757l3.44-17.477h4.782l-1.248 6.312a4.891 4.891 0 013.862-1.814 4.206 4.206 0 013.109 1.174zM176.212 70.244a5.257 5.257 0 012.237 2.05c.532.931.801 1.99.778 3.062a8.77 8.77 0 01-.212 1.862h-8.786a2.103 2.103 0 00.729 1.437 2.521 2.521 0 001.626.493 4.425 4.425 0 002.779-1.012l2.4 2.473a7.7 7.7 0 01-5.347 2.026 8.696 8.696 0 01-3.627-.706 5.465 5.465 0 01-2.4-2.025 5.543 5.543 0 01-.849-3.063 7.541 7.541 0 01.942-3.768 6.823 6.823 0 012.589-2.616 7.389 7.389 0 013.723-.942 7.56 7.56 0 013.418.729zm-1.484 4.122a1.519 1.519 0 00-.448-1.142 1.63 1.63 0 00-1.178-.436 2.255 2.255 0 00-1.482.576 3.784 3.784 0 00-1.06 1.52h4.1c.043-.17.066-.343.068-.518z" fill="#fff"/><path opacity=".3" d="M193.148 60.758l-2.5 11.31a41.72 41.72 0 01-8.692-3.537 41.195 41.195 0 01-10.311-8.11l21.503.337z" fill="#1D1D1B"/><path d="M193.144 60.482l-1.958 8.877a32.758 32.758 0 01-6.823-2.777 30.718 30.718 0 01-7.949-6.1h16.73z" fill="#fff"/></svg>